<mxfile host="app.diagrams.net" agent="Mozilla/5.0 (Macintosh; Intel Mac OS X 10_15_7) AppleWebKit/537.36 (KHTML, like Gecko) Chrome/127.0.0.0 Safari/537.36" version="24.7.7">
  <diagram name="Page-1" id="7e0a89b8-554c-2b80-1dc8-d5c74ca68de4">
    <mxGraphModel dx="803" dy="570" grid="1" gridSize="10" guides="1" tooltips="1" connect="1" arrows="1" fold="1" page="1" pageScale="1" pageWidth="1100" pageHeight="850" background="none" math="0" shadow="0">
      <root>
        <mxCell id="0" />
        <mxCell id="1" parent="0" />
        <mxCell id="KsF0-DfaTRkil6BRfzp3-2" value="" style="pointerEvents=1;verticalLabelPosition=bottom;shadow=0;dashed=0;align=center;html=1;verticalAlign=top;shape=mxgraph.electrical.signal_sources.source;aspect=fixed;points=[[0.5,0,0],[1,0.5,0],[0.5,1,0],[0,0.5,0]];elSignalType=dc3;" vertex="1" parent="1">
          <mxGeometry x="140" y="170" width="60" height="60" as="geometry" />
        </mxCell>
        <mxCell id="KsF0-DfaTRkil6BRfzp3-3" value="M" style="verticalLabelPosition=middle;shadow=0;dashed=0;align=center;html=1;verticalAlign=middle;strokeWidth=1;shape=ellipse;aspect=fixed;fontSize=35;" vertex="1" parent="1">
          <mxGeometry x="970" y="340" width="60" height="60" as="geometry" />
        </mxCell>
        <mxCell id="KsF0-DfaTRkil6BRfzp3-4" value="" style="pointerEvents=1;verticalLabelPosition=bottom;shadow=0;dashed=0;align=center;html=1;verticalAlign=top;shape=mxgraph.electrical.miscellaneous.fuse_2;" vertex="1" parent="1">
          <mxGeometry x="230" y="190" width="100" height="20" as="geometry" />
        </mxCell>
        <mxCell id="KsF0-DfaTRkil6BRfzp3-5" value="M" style="verticalLabelPosition=middle;shadow=0;dashed=0;align=center;html=1;verticalAlign=middle;strokeWidth=1;shape=ellipse;aspect=fixed;fontSize=35;" vertex="1" parent="1">
          <mxGeometry x="970" y="406" width="60" height="60" as="geometry" />
        </mxCell>
        <mxCell id="KsF0-DfaTRkil6BRfzp3-6" value="" style="verticalLabelPosition=bottom;shadow=0;dashed=0;align=center;html=1;verticalAlign=top;shape=mxgraph.electrical.opto_electronics.led_1;pointerEvents=1;" vertex="1" parent="1">
          <mxGeometry x="950" y="465" width="100" height="65" as="geometry" />
        </mxCell>
        <mxCell id="KsF0-DfaTRkil6BRfzp3-7" value="ESP32 on UC2-ESP v3 Board" style="whiteSpace=wrap;html=1;aspect=fixed;" vertex="1" parent="1">
          <mxGeometry x="680" y="330" width="200" height="200" as="geometry" />
        </mxCell>
        <mxCell id="KsF0-DfaTRkil6BRfzp3-8" value="" style="sketch=0;aspect=fixed;pointerEvents=1;shadow=0;dashed=0;html=1;strokeColor=none;labelPosition=center;verticalLabelPosition=bottom;verticalAlign=top;align=center;fillColor=#00188D;shape=mxgraph.mscae.enterprise.usb" vertex="1" parent="1">
          <mxGeometry x="690" y="383" width="50" height="23" as="geometry" />
        </mxCell>
        <mxCell id="KsF0-DfaTRkil6BRfzp3-9" value="Raspberry PI 5 with 5 inch Screen via MiPi (CSI)" style="whiteSpace=wrap;html=1;aspect=fixed;" vertex="1" parent="1">
          <mxGeometry x="270" y="330" width="200" height="200" as="geometry" />
        </mxCell>
        <mxCell id="KsF0-DfaTRkil6BRfzp3-11" value="" style="sketch=0;aspect=fixed;pointerEvents=1;shadow=0;dashed=0;html=1;strokeColor=none;labelPosition=center;verticalLabelPosition=bottom;verticalAlign=top;align=center;fillColor=#00188D;shape=mxgraph.mscae.enterprise.usb" vertex="1" parent="1">
          <mxGeometry x="410" y="378" width="50" height="23" as="geometry" />
        </mxCell>
        <mxCell id="KsF0-DfaTRkil6BRfzp3-25" style="edgeStyle=orthogonalEdgeStyle;rounded=0;orthogonalLoop=1;jettySize=auto;html=1;exitX=0.5;exitY=1;exitDx=0;exitDy=0;exitPerimeter=0;entryX=0.5;entryY=0;entryDx=0;entryDy=0;" edge="1" parent="1" source="KsF0-DfaTRkil6BRfzp3-13" target="KsF0-DfaTRkil6BRfzp3-9">
          <mxGeometry relative="1" as="geometry" />
        </mxCell>
        <mxCell id="KsF0-DfaTRkil6BRfzp3-13" value="" style="pointerEvents=1;verticalLabelPosition=bottom;shadow=0;dashed=0;align=center;html=1;verticalAlign=top;shape=mxgraph.electrical.signal_sources.current_source;rotation=-90;" vertex="1" parent="1">
          <mxGeometry x="360" y="170" width="40" height="60" as="geometry" />
        </mxCell>
        <mxCell id="KsF0-DfaTRkil6BRfzp3-14" value="" style="shape=link;html=1;rounded=0;exitX=1;exitY=0.25;exitDx=0;exitDy=0;entryX=0;entryY=0.25;entryDx=0;entryDy=0;" edge="1" parent="1">
          <mxGeometry width="100" relative="1" as="geometry">
            <mxPoint x="470" y="398" as="sourcePoint" />
            <mxPoint x="680" y="398" as="targetPoint" />
          </mxGeometry>
        </mxCell>
        <mxCell id="KsF0-DfaTRkil6BRfzp3-15" value="" style="shape=link;html=1;rounded=0;exitX=1;exitY=0.25;exitDx=0;exitDy=0;" edge="1" parent="1">
          <mxGeometry width="100" relative="1" as="geometry">
            <mxPoint x="880" y="371" as="sourcePoint" />
            <mxPoint x="970" y="370" as="targetPoint" />
          </mxGeometry>
        </mxCell>
        <mxCell id="KsF0-DfaTRkil6BRfzp3-16" value="" style="shape=link;html=1;rounded=0;exitX=1;exitY=0.25;exitDx=0;exitDy=0;" edge="1" parent="1">
          <mxGeometry width="100" relative="1" as="geometry">
            <mxPoint x="880" y="436.5" as="sourcePoint" />
            <mxPoint x="970" y="435.5" as="targetPoint" />
          </mxGeometry>
        </mxCell>
        <mxCell id="KsF0-DfaTRkil6BRfzp3-17" value="" style="shape=link;html=1;rounded=0;exitX=1;exitY=0.25;exitDx=0;exitDy=0;entryX=0;entryY=0.54;entryDx=0;entryDy=0;entryPerimeter=0;" edge="1" parent="1" target="KsF0-DfaTRkil6BRfzp3-6">
          <mxGeometry width="100" relative="1" as="geometry">
            <mxPoint x="880" y="501" as="sourcePoint" />
            <mxPoint x="940" y="500" as="targetPoint" />
          </mxGeometry>
        </mxCell>
        <mxCell id="KsF0-DfaTRkil6BRfzp3-19" value="&lt;span style=&quot;color: rgb(0, 0, 0); font-family: Helvetica; font-size: 12px; font-style: normal; font-variant-ligatures: normal; font-variant-caps: normal; font-weight: 400; letter-spacing: normal; orphans: 2; text-align: center; text-indent: 0px; text-transform: none; widows: 2; word-spacing: 0px; -webkit-text-stroke-width: 0px; white-space: normal; background-color: rgb(251, 251, 251); text-decoration-thickness: initial; text-decoration-style: initial; text-decoration-color: initial; display: inline !important; float: none;&quot;&gt;12V/5A Power Supply (Meanwell)&lt;/span&gt;" style="text;whiteSpace=wrap;html=1;" vertex="1" parent="1">
          <mxGeometry x="130" y="100" width="100" height="40" as="geometry" />
        </mxCell>
        <mxCell id="KsF0-DfaTRkil6BRfzp3-20" value="&lt;div style=&quot;text-align: center;&quot;&gt;&lt;span style=&quot;background-color: initial;&quot;&gt;5V/6A DC/DC converter&lt;/span&gt;&lt;/div&gt;" style="text;whiteSpace=wrap;html=1;" vertex="1" parent="1">
          <mxGeometry x="320" y="130" width="100" height="40" as="geometry" />
        </mxCell>
        <mxCell id="KsF0-DfaTRkil6BRfzp3-23" style="edgeStyle=orthogonalEdgeStyle;rounded=0;orthogonalLoop=1;jettySize=auto;html=1;exitX=1;exitY=0.5;exitDx=0;exitDy=0;exitPerimeter=0;entryX=0;entryY=0.5;entryDx=0;entryDy=0;entryPerimeter=0;" edge="1" parent="1" source="KsF0-DfaTRkil6BRfzp3-2" target="KsF0-DfaTRkil6BRfzp3-4">
          <mxGeometry relative="1" as="geometry" />
        </mxCell>
        <mxCell id="KsF0-DfaTRkil6BRfzp3-24" style="edgeStyle=orthogonalEdgeStyle;rounded=0;orthogonalLoop=1;jettySize=auto;html=1;exitX=1;exitY=0.5;exitDx=0;exitDy=0;exitPerimeter=0;entryX=0.5;entryY=0;entryDx=0;entryDy=0;entryPerimeter=0;" edge="1" parent="1" source="KsF0-DfaTRkil6BRfzp3-4" target="KsF0-DfaTRkil6BRfzp3-13">
          <mxGeometry relative="1" as="geometry" />
        </mxCell>
        <mxCell id="KsF0-DfaTRkil6BRfzp3-28" style="edgeStyle=orthogonalEdgeStyle;rounded=0;orthogonalLoop=1;jettySize=auto;html=1;exitX=1;exitY=0.5;exitDx=0;exitDy=0;exitPerimeter=0;entryX=0.12;entryY=-0.01;entryDx=0;entryDy=0;entryPerimeter=0;" edge="1" parent="1" source="KsF0-DfaTRkil6BRfzp3-4" target="KsF0-DfaTRkil6BRfzp3-7">
          <mxGeometry relative="1" as="geometry">
            <mxPoint x="620" y="460" as="targetPoint" />
            <Array as="points">
              <mxPoint x="330" y="300" />
              <mxPoint x="704" y="300" />
            </Array>
          </mxGeometry>
        </mxCell>
        <mxCell id="KsF0-DfaTRkil6BRfzp3-32" value="&lt;div style=&quot;text-align: center;&quot;&gt;12V&lt;/div&gt;" style="text;whiteSpace=wrap;html=1;" vertex="1" parent="1">
          <mxGeometry x="690" y="338" width="20" height="22" as="geometry" />
        </mxCell>
        <mxCell id="KsF0-DfaTRkil6BRfzp3-35" value="&lt;div style=&quot;text-align: center;&quot;&gt;5V (GPIO Pins)&lt;/div&gt;" style="text;whiteSpace=wrap;html=1;" vertex="1" parent="1">
          <mxGeometry x="330" y="338" width="120" height="22" as="geometry" />
        </mxCell>
        <mxCell id="KsF0-DfaTRkil6BRfzp3-36" value="&lt;div style=&quot;text-align: center;&quot;&gt;&lt;span style=&quot;background-color: initial;&quot;&gt;F1&lt;/span&gt;&lt;/div&gt;" style="text;whiteSpace=wrap;html=1;" vertex="1" parent="1">
          <mxGeometry x="270" y="160" width="40" height="30" as="geometry" />
        </mxCell>
        <mxCell id="KsF0-DfaTRkil6BRfzp3-37" value="" style="pointerEvents=1;shadow=0;dashed=0;html=1;strokeColor=none;fillColor=#4495D1;labelPosition=center;verticalLabelPosition=bottom;verticalAlign=top;align=center;outlineConnect=0;shape=mxgraph.veeam.sd_card;" vertex="1" parent="1">
          <mxGeometry x="288" y="570" width="32.4" height="38.8" as="geometry" />
        </mxCell>
        <mxCell id="KsF0-DfaTRkil6BRfzp3-38" value="" style="sketch=0;aspect=fixed;pointerEvents=1;shadow=0;dashed=0;html=1;strokeColor=none;labelPosition=center;verticalLabelPosition=bottom;verticalAlign=top;align=center;fillColor=#00188D;shape=mxgraph.mscae.enterprise.usb" vertex="1" parent="1">
          <mxGeometry x="288" y="500" width="50" height="23" as="geometry" />
        </mxCell>
        <mxCell id="KsF0-DfaTRkil6BRfzp3-39" value="" style="sketch=0;outlineConnect=0;fontColor=#232F3E;gradientColor=none;fillColor=#232F3D;strokeColor=none;dashed=0;verticalLabelPosition=bottom;verticalAlign=top;align=center;html=1;fontSize=12;fontStyle=0;aspect=fixed;pointerEvents=1;shape=mxgraph.aws4.camera2;" vertex="1" parent="1">
          <mxGeometry x="342" y="558.4" width="78" height="62" as="geometry" />
        </mxCell>
        <mxCell id="KsF0-DfaTRkil6BRfzp3-40" value="" style="sketch=0;aspect=fixed;pointerEvents=1;shadow=0;dashed=0;html=1;strokeColor=none;labelPosition=center;verticalLabelPosition=bottom;verticalAlign=top;align=center;fillColor=#00188D;shape=mxgraph.mscae.enterprise.usb" vertex="1" parent="1">
          <mxGeometry x="355" y="500" width="50" height="23" as="geometry" />
        </mxCell>
        <mxCell id="KsF0-DfaTRkil6BRfzp3-41" value="&lt;div style=&quot;text-align: center;&quot;&gt;&lt;span style=&quot;background-color: initial;&quot;&gt;Q1&lt;/span&gt;&lt;/div&gt;" style="text;whiteSpace=wrap;html=1;" vertex="1" parent="1">
          <mxGeometry x="150" y="240" width="40" height="30" as="geometry" />
        </mxCell>
        <mxCell id="KsF0-DfaTRkil6BRfzp3-43" value="&lt;ol&gt;&lt;li&gt;&lt;span style=&quot;color: rgb(0, 0, 0); font-family: Helvetica; font-size: 12px; font-style: normal; font-variant-ligatures: normal; font-variant-caps: normal; font-weight: 400; letter-spacing: normal; orphans: 2; text-align: center; text-indent: 0px; text-transform: none; widows: 2; word-spacing: 0px; -webkit-text-stroke-width: 0px; white-space: normal; background-color: rgb(251, 251, 251); text-decoration-thickness: initial; text-decoration-style: initial; text-decoration-color: initial; display: inline !important; float: none;&quot;&gt;Power is coming via an external power supply and converted to 5V for the Raspberry Pi via a DC-DC converter&lt;/span&gt;&lt;/li&gt;&lt;li&gt;&lt;span style=&quot;color: rgb(0, 0, 0); font-family: Helvetica; font-size: 12px; font-style: normal; font-variant-ligatures: normal; font-variant-caps: normal; font-weight: 400; letter-spacing: normal; orphans: 2; text-align: center; text-indent: 0px; text-transform: none; widows: 2; word-spacing: 0px; -webkit-text-stroke-width: 0px; white-space: normal; background-color: rgb(251, 251, 251); text-decoration-thickness: initial; text-decoration-style: initial; text-decoration-color: initial; display: inline !important; float: none;&quot;&gt;The Raspberry Pi 5 has the original Raspberry Pi 7 inch touch screen connected via CSI and runs the latest Debian image with ImSwitch through docker&amp;nbsp;&lt;/span&gt;&lt;/li&gt;&lt;li&gt;&lt;span style=&quot;color: rgb(0, 0, 0); font-family: Helvetica; font-size: 12px; font-style: normal; font-variant-ligatures: normal; font-variant-caps: normal; font-weight: 400; letter-spacing: normal; orphans: 2; text-align: center; text-indent: 0px; text-transform: none; widows: 2; word-spacing: 0px; -webkit-text-stroke-width: 0px; white-space: normal; background-color: rgb(251, 251, 251); text-decoration-thickness: initial; text-decoration-style: initial; text-decoration-color: initial; display: inline !important; float: none;&quot;&gt;The HIK USB3 camera is connected via USB&lt;/span&gt;&lt;/li&gt;&lt;li&gt;&lt;span style=&quot;color: rgb(0, 0, 0); font-family: Helvetica; font-size: 12px; font-style: normal; font-variant-ligatures: normal; font-variant-caps: normal; font-weight: 400; letter-spacing: normal; orphans: 2; text-align: center; text-indent: 0px; text-transform: none; widows: 2; word-spacing: 0px; -webkit-text-stroke-width: 0px; white-space: normal; background-color: rgb(251, 251, 251); text-decoration-thickness: initial; text-decoration-style: initial; text-decoration-color: initial; display: inline !important; float: none;&quot;&gt;The UC2-ESP board is represented by the UC2-SUES Standalone Board v3&amp;nbsp;&lt;/span&gt;&lt;/li&gt;&lt;li&gt;&lt;span style=&quot;color: rgb(0, 0, 0); font-family: Helvetica; font-size: 12px; font-style: normal; font-variant-ligatures: normal; font-variant-caps: normal; font-weight: 400; letter-spacing: normal; orphans: 2; text-align: center; text-indent: 0px; text-transform: none; widows: 2; word-spacing: 0px; -webkit-text-stroke-width: 0px; white-space: normal; background-color: rgb(251, 251, 251); text-decoration-thickness: initial; text-decoration-style: initial; text-decoration-color: initial; display: inline !important; float: none;&quot;&gt;M1 represents the Perestaltic pump driven by a NEMA17 motor&lt;/span&gt;&lt;/li&gt;&lt;li&gt;&lt;span style=&quot;color: rgb(0, 0, 0); font-family: Helvetica; font-size: 12px; font-style: normal; font-variant-ligatures: normal; font-variant-caps: normal; font-weight: 400; letter-spacing: normal; orphans: 2; text-align: center; text-indent: 0px; text-transform: none; widows: 2; word-spacing: 0px; -webkit-text-stroke-width: 0px; white-space: normal; background-color: rgb(251, 251, 251); text-decoration-thickness: initial; text-decoration-style: initial; text-decoration-color: initial; display: inline !important; float: none;&quot;&gt;M2 represents the focussing motor that turns the focus knob of the CCTV camera lens&amp;nbsp;&lt;/span&gt;&lt;/li&gt;&lt;li&gt;&lt;span style=&quot;color: rgb(0, 0, 0); font-family: Helvetica; font-size: 12px; font-style: normal; font-variant-ligatures: normal; font-variant-caps: normal; font-weight: 400; letter-spacing: normal; orphans: 2; text-align: center; text-indent: 0px; text-transform: none; widows: 2; word-spacing: 0px; -webkit-text-stroke-width: 0px; white-space: normal; background-color: rgb(251, 251, 251); text-decoration-thickness: initial; text-decoration-style: initial; text-decoration-color: initial; display: inline !important; float: none;&quot;&gt;the 5V LED is to illuminate the sample in transmission brightfield&lt;/span&gt;&lt;/li&gt;&lt;/ol&gt;" style="text;whiteSpace=wrap;html=1;" vertex="1" parent="1">
          <mxGeometry x="560" y="558.4" width="430" height="221.6" as="geometry" />
        </mxCell>
      </root>
    </mxGraphModel>
  </diagram>
</mxfile>
